Patient4_TMGait_0pt2_01_right_06_GRF.mot
version=1
nRows=51
nColumns=19
inDegrees=no
endheader
time	F1x	F1y	F1z	M1x	M1y	M1z	F2x	F2y	F2z	M2x	M2y	M2z	EC1x	EC1y	EC1z	EC2x	EC2y	EC2z
11.45	5.0664	670.3235	33.1687	-252.5844	-32.8614	690.0756	-0.096097	90.5433	-9.1839	30.6706	8.249	82.6718	-0.0592	0.0182	-0.0073	-0.0462	0.0165	0.9585
11.4745	2.8833	689.5178	34.766	-259.7972	-34.7353	710.6355	0.092888	79.0499	-8.6127	26.7277	7.829	72.1833	-0.0592	0.0182	-0.0073	-0.0462	0.0165	0.9585
11.499	0.17755	713.9348	36.8921	-268.9154	-37.3434	736.5164	-0.017701	65.5453	-7.7034	22.1298	7.1539	59.891	-0.0592	0.0182	-0.0073	-0.0462	0.0165	0.9585
11.5235	-2.8468	742.1898	39.4039	-279.4327	-40.4873	766.1372	-0.34402	51.2216	-6.4971	17.2818	6.2281	46.8869	-0.0592	0.0182	-0.0073	-0.0462	0.0165	0.9585
11.548	-5.8843	772.0602	42.058	-290.5378	-43.8068	797.0211	-0.70002	37.4239	-5.1082	12.6323	5.1013	34.3907	-0.0592	0.0182	-0.0073	-0.0462	0.0165	0.9585
11.5725	-8.556	800.7367	44.5824	-301.1983	-46.87	826.0845	-0.89379	25.3141	-3.6937	8.5654	3.8683	23.4454	-0.0592	0.0182	-0.0073	-0.0462	0.0165	0.9585
11.597	-10.4734	825.0783	46.7441	-310.2504	-49.2769	849.9511	-0.87538	15.6449	-2.4236	5.3271	2.684	14.7189	-0.0592	0.0182	-0.0073	-0.0462	0.0165	0.9585
11.6215	-11.3086	842.0124	48.3852	-316.5451	-50.7347	865.4032	-0.73516	8.61	-1.4124	2.9774	1.6922	8.3726	-0.0592	0.0182	-0.0073	-0.0462	0.0165	0.9585
11.646	-10.8537	849.2418	49.4101	-319.2213	-51.0722	870.1184	-0.54554	3.9214	-0.68298	1.4154	0.93997	4.1274	-0.0592	0.0182	-0.0073	-0.0462	0.0165	0.9585
11.6705	-9.0688	846.0422	49.7437	-318.0107	-50.2133	863.4654	-0.34645	1.0499	-0.20704	0.4616	0.41446	1.4813	-0.0592	0.0182	-0.0073	-0.0462	0.0165	0.9585
11.695	-6.0878	833.6938	49.3227	-313.4008	-48.1599	846.9035	-0.15504	-0.59757	0.068625	-0.083855	0.071307	-0.1199	-0.0592	0.0182	-0.0073	-0.0462	0.0165	0.9585
11.7195	-2.1675	815.221	48.1557	-306.5352	-45.0252	823.6807	0.026524	-1.5681	0.20489	-0.40662	-0.14522	-1.1847	-0.0592	0.0182	-0.0073	-0.0462	0.0165	0.9585
11.744	2.3985	794.6132	46.3622	-298.9137	-41.0444	797.9959	0.20552	-2.3007	0.2583	-0.65684	-0.28873	-2.1112	-0.0592	0.0182	-0.0073	-0.0462	0.0165	0.9585
11.7685	7.3345	775.82	44.1598	-292.0084	-36.5437	773.9552	0.39488	-3.0827	0.27229	-0.93344	-0.40328	-3.1408	-0.0592	0.0182	-0.0073	-0.0462	0.0165	0.9585
11.793	12.4048	761.7562	41.8184	-286.8968	-31.8881	754.5825	0.60208	-4.0234	0.27723	-1.2754	-0.51905	-4.3349	-0.0592	0.0182	-0.0073	-0.0462	0.0165	0.9585
11.8175	17.4268	753.6711	39.6105	-284.0281	-27.4259	741.1995	0.82351	-5.0241	0.28924	-1.6514	-0.64605	-5.5451	-0.0592	0.0182	-0.0073	-0.0462	0.0165	0.9585
11.842	22.282	751.0627	37.7781	-283.1916	-23.4487	733.357	1.0379	-5.7468	0.31009	-1.9475	-0.77185	-6.3625	-0.0592	0.0182	-0.0073	-0.0462	0.0165	0.9585
11.8665	26.9019	752.0668	36.5037	-283.6644	-20.1667	729.2545	1.1956	-5.5848	0.3268	-1.9544	-0.85928	-6.0736	-0.0592	0.0182	-0.0073	-0.0462	0.0165	0.9585
11.891	31.2428	754.1176	35.8889	-284.46	-17.6981	726.429	1.2092	-3.6392	0.30764	-1.3572	-0.83511	-3.632	-0.0592	0.0182	-0.0073	-0.0462	0.0165	0.9585
11.9155	35.2441	754.6198	35.9509	-284.5855	-16.079	722.434	0.94728	1.2719	0.20473	0.26385	-0.5876	2.3232	-0.0592	0.0182	-0.0073	-0.0462	0.0165	0.9585
11.94	38.7915	751.4501	36.6187	-283.2344	-15.2751	715.3293	0.23271	10.5376	-0.041227	3.4076	0.02706	13.371	-0.0592	0.0182	-0.0073	-0.0462	0.0165	0.9585
11.9645	41.6862	743.1314	37.7238	-279.8574	-15.1899	703.8404	-1.1456	25.564	-0.50014	8.5887	1.1697	31.083	-0.0592	0.0182	-0.0073	-0.0462	0.0165	0.9585
11.989	43.6594	728.7299	38.9918	-274.129	-15.6561	687.2378	-3.401	47.4253	-1.245	16.218	2.9954	56.6068	-0.0592	0.0182	-0.0073	-0.0462	0.0165	0.9585
12.0135	44.4643	707.7223	40.0805	-265.8915	-16.4388	665.1551	-6.6665	76.4473	-2.3612	26.4548	5.6416	90.1738	-0.0592	0.0182	-0.0073	-0.0462	0.0165	0.9585
12.038	43.9507	679.9301	40.6803	-255.1139	-17.303	637.4892	-10.8406	111.9901	-4.0642	39.1076	9.309	130.8645	-0.0592	0.0182	-0.0073	-0.0462	0.0165	0.9585
12.0625	42.0973	645.5898	40.5784	-241.9117	-18.0636	604.4679	-15.4212	152.4582	-6.5678	53.6264	14.0397	176.646	-0.0592	0.0182	-0.0073	-0.0462	0.0165	0.9585
12.087	39.0604	605.6087	39.6663	-226.6412	-18.5714	566.8841	-19.7597	195.8765	-9.9028	69.3129	19.6109	225.1049	-0.0592	0.0182	-0.0073	-0.0462	0.0165	0.9585
12.1115	35.1654	561.6087	37.9492	-209.9109	-18.719	526.143	-23.3916	240.5801	-13.7862	85.5761	25.528	274.3174	-0.0592	0.0182	-0.0073	-0.0462	0.0165	0.9585
12.136	30.8174	515.6383	35.5536	-192.4768	-18.4744	484.0185	-26.1493	285.4546	-17.7533	102.0102	31.216	323.1335	-0.0592	0.0182	-0.0073	-0.0462	0.0165	0.9585
12.1605	26.4113	469.7326	32.7014	-175.0868	-17.8892	442.2621	-28.1027	329.5673	-21.4706	118.2399	36.3319	370.7185	-0.0592	0.0182	-0.0073	-0.0462	0.0165	0.9585
12.185	22.3056	425.5495	29.6643	-158.3485	-17.0664	402.2511	-29.437	371.7689	-24.8126	133.7834	40.7969	416.0196	-0.0592	0.0182	-0.0073	-0.0462	0.0165	0.9585
12.2095	18.8065	384.2668	26.7112	-142.6962	-16.118	364.8975	-30.3159	411.0022	-27.7336	148.1949	44.6062	458.0198	-0.0592	0.0182	-0.0073	-0.0462	0.0165	0.9585
12.234	16.1164	346.611	24.0337	-128.4082	-15.1237	330.7115	-30.8144	446.5964	-30.2119	161.1866	47.7461	496.0301	-0.0592	0.0182	-0.0073	-0.0462	0.0165	0.9585
12.2585	14.2829	312.9443	21.73	-115.6366	-14.134	299.9257	-30.91	478.1784	-32.2672	172.5976	50.2143	529.6026	-0.0592	0.0182	-0.0073	-0.0462	0.0165	0.9585
12.283	13.1952	283.447	19.8548	-104.4681	-13.2189	272.6925	-30.5347	505.5608	-33.9492	182.356	52.0331	558.4569	-0.0592	0.0182	-0.0073	-0.0462	0.0165	0.9585
12.3075	12.6278	258.2567	18.4345	-94.9661	-12.4687	249.2036	-29.6743	528.6672	-35.2939	190.4568	53.2418	582.4653	-0.0592	0.0182	-0.0073	-0.0462	0.0165	0.9585
12.332	12.3344	237.488	17.4574	-87.1745	-11.9553	229.6745	-28.4181	547.5218	-36.2867	196.9548	53.8693	601.6761	-0.0592	0.0182	-0.0073	-0.0462	0.0165	0.9585
12.3565	12.1428	221.1311	16.8798	-81.0779	-11.7018	214.2048	-26.929	562.281	-36.8578	201.9647	53.9143	616.3305	-0.0592	0.0182	-0.0073	-0.0462	0.0165	0.9585
12.381	11.9837	208.8542	16.6318	-76.5319	-11.6745	202.5651	-25.3819	573.2171	-36.9522	205.6336	53.3946	626.805	-0.0592	0.0182	-0.0073	-0.0462	0.0165	0.9585
12.4055	11.8737	199.8601	16.6276	-73.2141	-11.7999	194.048	-23.8946	580.7456	-36.6114	208.1352	52.4046	633.5929	-0.0592	0.0182	-0.0073	-0.0462	0.0165	0.9585
12.43	11.85	192.9178	16.7803	-70.6443	-11.9991	187.4911	-22.4951	585.5644	-35.9784	209.7252	51.1083	637.4338	-0.0592	0.0182	-0.0073	-0.0462	0.0165	0.9585
12.4545	11.8835	186.6923	17.0025	-68.3115	-12.2175	181.6138	-21.1455	588.774	-35.2342	210.8	49.6849	639.4458	-0.0592	0.0182	-0.0073	-0.0462	0.0165	0.9585
12.479	11.8534	180.1964	17.2122	-65.8411	-12.4359	175.4733	-19.8017	591.7985	-34.5151	211.8801	48.2669	641.0645	-0.0592	0.0182	-0.0073	-0.0462	0.0165	0.9585
12.5035	11.605	172.9696	17.3459	-63.0598	-12.6611	168.6301	-18.46	596.0869	-33.8855	213.4999	46.9221	643.7518	-0.0592	0.0182	-0.0073	-0.0462	0.0165	0.9585
12.528	11.0222	164.9138	17.3733	-59.935	-12.911	160.9775	-17.1692	602.7845	-33.36	216.0797	45.6826	648.6785	-0.0592	0.0182	-0.0073	-0.0462	0.0165	0.9585
12.5525	10.0512	156.015	17.2919	-56.475	-13.1989	152.4775	-16.0234	612.555	-32.9322	219.8523	44.5734	656.5536	-0.0592	0.0182	-0.0073	-0.0462	0.0165	0.9585
12.577	8.696	146.1843	17.0931	-52.6691	-13.5075	143.0181	-15.1156	625.5927	-32.5906	224.8629	43.6079	667.6334	-0.0592	0.0182	-0.0073	-0.0462	0.0165	0.9585
12.6015	7.0211	135.2541	16.7411	-48.4817	-13.774	132.418	-14.4887	641.6616	-32.3492	230.9844	42.7991	681.754	-0.0592	0.0182	-0.0073	-0.0462	0.0165	0.9585
12.626	5.1515	123.018	16.1842	-43.8649	-13.903	120.4732	-14.1293	660.1444	-32.2681	237.9428	42.1869	698.3623	-0.0592	0.0182	-0.0073	-0.0462	0.0165	0.9585
12.6505	3.2212	109.3228	15.3637	-38.7845	-13.7919	107.0503	-14.0059	680.1978	-32.4292	245.3875	41.8323	716.658	-0.0592	0.0182	-0.0073	-0.0462	0.0165	0.9585
12.675	1.3329	94.2114	14.2215	-33.2668	-13.3496	92.2271	-14.0783	700.9689	-32.8919	252.9805	41.7831	735.7925	-0.0592	0.0182	-0.0073	-0.0462	0.0165	0.9585
